<mxfile host="app.diagrams.net" modified="2021-12-07T15:29:34.006Z" agent="5.0 (Windows NT 10.0; Win64; x64) AppleWebKit/537.36 (KHTML, like Gecko) Chrome/96.0.4664.45 Safari/537.36" etag="DUGWhbaYALWeV_0nAH-W" version="15.9.1" type="github">
  <diagram id="WpugDyYvn8EeGp7OIS5a" name="Page-1">
    <mxGraphModel dx="3383" dy="1094" grid="1" gridSize="10" guides="1" tooltips="1" connect="1" arrows="1" fold="1" page="1" pageScale="1" pageWidth="827" pageHeight="1169" math="0" shadow="0">
      <root>
        <mxCell id="0" />
        <mxCell id="1" parent="0" />
        <mxCell id="ZD2GbBzJbw6rys_hTAOi-2" value="Valutazione" style="whiteSpace=wrap;html=1;align=center;" parent="1" vertex="1">
          <mxGeometry x="180" y="200" width="100" height="40" as="geometry" />
        </mxCell>
        <mxCell id="ZD2GbBzJbw6rys_hTAOi-3" value="&lt;u&gt;&lt;b&gt;Seriale&lt;/b&gt;&lt;/u&gt;" style="whiteSpace=wrap;html=1;align=center;" parent="1" vertex="1">
          <mxGeometry x="80" y="200" width="100" height="40" as="geometry" />
        </mxCell>
        <mxCell id="ZD2GbBzJbw6rys_hTAOi-4" value="MACCHINARIO" style="text;html=1;strokeColor=none;fillColor=none;align=center;verticalAlign=middle;whiteSpace=wrap;rounded=0;" parent="1" vertex="1">
          <mxGeometry x="100" y="170" width="60" height="30" as="geometry" />
        </mxCell>
        <mxCell id="ZD2GbBzJbw6rys_hTAOi-5" value="Lotto" style="whiteSpace=wrap;html=1;align=center;" parent="1" vertex="1">
          <mxGeometry x="280" y="200" width="100" height="40" as="geometry" />
        </mxCell>
        <mxCell id="ZD2GbBzJbw6rys_hTAOi-6" value="Problematiche&lt;span style=&quot;color: rgba(0 , 0 , 0 , 0) ; font-family: monospace ; font-size: 0px&quot;&gt;%3CmxGraphModel%3E%3Croot%3E%3CmxCell%20id%3D%220%22%2F%3E%3CmxCell%20id%3D%221%22%20parent%3D%220%22%2F%3E%3CmxCell%20id%3D%222%22%20value%3D%22Entity%22%20style%3D%22whiteSpace%3Dwrap%3Bhtml%3D1%3Balign%3Dcenter%3B%22%20vertex%3D%221%22%20parent%3D%221%22%3E%3CmxGeometry%20x%3D%22320%22%20y%3D%22290%22%20width%3D%22100%22%20height%3D%2240%22%20as%3D%22geometry%22%2F%3E%3C%2FmxCell%3E%3C%2Froot%3E%3C%2FmxGraphModel%3E&lt;/span&gt;" style="whiteSpace=wrap;html=1;align=center;" parent="1" vertex="1">
          <mxGeometry x="380" y="200" width="100" height="40" as="geometry" />
        </mxCell>
        <mxCell id="ZD2GbBzJbw6rys_hTAOi-7" value="Descrizione" style="whiteSpace=wrap;html=1;align=center;" parent="1" vertex="1">
          <mxGeometry x="480" y="200" width="100" height="40" as="geometry" />
        </mxCell>
        <mxCell id="ZD2GbBzJbw6rys_hTAOi-8" value="#Accessori" style="whiteSpace=wrap;html=1;align=center;" parent="1" vertex="1">
          <mxGeometry x="580" y="200" width="100" height="40" as="geometry" />
        </mxCell>
        <mxCell id="ZD2GbBzJbw6rys_hTAOi-9" value="Prezzo" style="whiteSpace=wrap;html=1;align=center;" parent="1" vertex="1">
          <mxGeometry x="680" y="200" width="100" height="40" as="geometry" />
        </mxCell>
        <mxCell id="ZD2GbBzJbw6rys_hTAOi-10" value="ApplicabilitàMul" style="whiteSpace=wrap;html=1;align=center;" parent="1" vertex="1">
          <mxGeometry x="280" y="320" width="100" height="40" as="geometry" />
        </mxCell>
        <mxCell id="ZD2GbBzJbw6rys_hTAOi-11" value="DestinazioneUso" style="whiteSpace=wrap;html=1;align=center;" parent="1" vertex="1">
          <mxGeometry x="180" y="320" width="100" height="40" as="geometry" />
        </mxCell>
        <mxCell id="ZD2GbBzJbw6rys_hTAOi-12" value="&lt;b&gt;&lt;u&gt;NomeCat&lt;/u&gt;&lt;/b&gt;" style="whiteSpace=wrap;html=1;align=center;" parent="1" vertex="1">
          <mxGeometry x="80" y="320" width="100" height="40" as="geometry" />
        </mxCell>
        <mxCell id="ZD2GbBzJbw6rys_hTAOi-13" value="ACCESSORIA" style="text;html=1;strokeColor=none;fillColor=none;align=center;verticalAlign=middle;whiteSpace=wrap;rounded=0;" parent="1" vertex="1">
          <mxGeometry x="100" y="290" width="60" height="30" as="geometry" />
        </mxCell>
        <mxCell id="ZD2GbBzJbw6rys_hTAOi-14" value="DestinazioneUso" style="whiteSpace=wrap;html=1;align=center;" parent="1" vertex="1">
          <mxGeometry x="180" y="440" width="100" height="40" as="geometry" />
        </mxCell>
        <mxCell id="ZD2GbBzJbw6rys_hTAOi-15" value="&lt;u&gt;&lt;b&gt;NomeCat&lt;/b&gt;&lt;/u&gt;" style="whiteSpace=wrap;html=1;align=center;" parent="1" vertex="1">
          <mxGeometry x="80" y="440" width="100" height="40" as="geometry" />
        </mxCell>
        <mxCell id="ZD2GbBzJbw6rys_hTAOi-16" value="BASE" style="text;html=1;strokeColor=none;fillColor=none;align=center;verticalAlign=middle;whiteSpace=wrap;rounded=0;" parent="1" vertex="1">
          <mxGeometry x="90" y="410" width="50" height="30" as="geometry" />
        </mxCell>
        <mxCell id="ZD2GbBzJbw6rys_hTAOi-17" value="Lunghezza" style="whiteSpace=wrap;html=1;align=center;" parent="1" vertex="1">
          <mxGeometry x="280" y="440" width="100" height="40" as="geometry" />
        </mxCell>
        <mxCell id="ZD2GbBzJbw6rys_hTAOi-18" value="Larghezza" style="whiteSpace=wrap;html=1;align=center;" parent="1" vertex="1">
          <mxGeometry x="380" y="440" width="100" height="40" as="geometry" />
        </mxCell>
        <mxCell id="ZD2GbBzJbw6rys_hTAOi-19" value="Altezza" style="whiteSpace=wrap;html=1;align=center;" parent="1" vertex="1">
          <mxGeometry x="480" y="440" width="100" height="40" as="geometry" />
        </mxCell>
        <mxCell id="ZD2GbBzJbw6rys_hTAOi-20" value="Trattamenti" style="whiteSpace=wrap;html=1;align=center;" parent="1" vertex="1">
          <mxGeometry x="580" y="440" width="100" height="40" as="geometry" />
        </mxCell>
        <mxCell id="ZD2GbBzJbw6rys_hTAOi-22" value="#Acquisti" style="whiteSpace=wrap;html=1;align=center;" parent="1" vertex="1">
          <mxGeometry x="780" y="80" width="100" height="40" as="geometry" />
        </mxCell>
        <mxCell id="ZD2GbBzJbw6rys_hTAOi-23" value="&lt;u&gt;&lt;b&gt;CF&lt;/b&gt;&lt;/u&gt;" style="whiteSpace=wrap;html=1;align=center;" parent="1" vertex="1">
          <mxGeometry x="680" y="80" width="100" height="40" as="geometry" />
        </mxCell>
        <mxCell id="ZD2GbBzJbw6rys_hTAOi-24" value="CLIENTE" style="text;html=1;strokeColor=none;fillColor=none;align=center;verticalAlign=middle;whiteSpace=wrap;rounded=0;" parent="1" vertex="1">
          <mxGeometry x="690" y="50" width="60" height="30" as="geometry" />
        </mxCell>
        <mxCell id="ZD2GbBzJbw6rys_hTAOi-25" value="Nome" style="whiteSpace=wrap;html=1;align=center;" parent="1" vertex="1">
          <mxGeometry x="880" y="80" width="100" height="40" as="geometry" />
        </mxCell>
        <mxCell id="ZD2GbBzJbw6rys_hTAOi-26" value="Cognome" style="whiteSpace=wrap;html=1;align=center;" parent="1" vertex="1">
          <mxGeometry x="980" y="80" width="100" height="40" as="geometry" />
        </mxCell>
        <mxCell id="ZD2GbBzJbw6rys_hTAOi-29" value="Email" style="whiteSpace=wrap;html=1;align=center;" parent="1" vertex="1">
          <mxGeometry x="1180" y="80" width="100" height="40" as="geometry" />
        </mxCell>
        <mxCell id="ZD2GbBzJbw6rys_hTAOi-32" value="Telefono" style="whiteSpace=wrap;html=1;align=center;" parent="1" vertex="1">
          <mxGeometry x="1080" y="80" width="100" height="40" as="geometry" />
        </mxCell>
        <mxCell id="ZD2GbBzJbw6rys_hTAOi-36" value="Targa" style="whiteSpace=wrap;html=1;align=center;" parent="1" vertex="1">
          <mxGeometry x="340" y="560" width="100" height="40" as="geometry" />
        </mxCell>
        <mxCell id="ZD2GbBzJbw6rys_hTAOi-37" value="&lt;u&gt;&lt;b&gt;CF&lt;/b&gt;&lt;/u&gt;" style="whiteSpace=wrap;html=1;align=center;" parent="1" vertex="1">
          <mxGeometry x="240" y="560" width="100" height="40" as="geometry" />
        </mxCell>
        <mxCell id="ZD2GbBzJbw6rys_hTAOi-38" value="CORRIERE" style="text;html=1;strokeColor=none;fillColor=none;align=center;verticalAlign=middle;whiteSpace=wrap;rounded=0;" parent="1" vertex="1">
          <mxGeometry x="250" y="530" width="60" height="30" as="geometry" />
        </mxCell>
        <mxCell id="ZD2GbBzJbw6rys_hTAOi-41" value="Società" style="whiteSpace=wrap;html=1;align=center;" parent="1" vertex="1">
          <mxGeometry x="440" y="560" width="100" height="40" as="geometry" />
        </mxCell>
        <mxCell id="ZD2GbBzJbw6rys_hTAOi-42" value="DataPrimoImp" style="whiteSpace=wrap;html=1;align=center;" parent="1" vertex="1">
          <mxGeometry x="540" y="560" width="100" height="40" as="geometry" />
        </mxCell>
        <mxCell id="ZD2GbBzJbw6rys_hTAOi-111" style="edgeStyle=orthogonalEdgeStyle;rounded=0;orthogonalLoop=1;jettySize=auto;html=1;exitX=0.5;exitY=1;exitDx=0;exitDy=0;entryX=0;entryY=0.25;entryDx=0;entryDy=0;fontSize=11;" parent="1" source="ZD2GbBzJbw6rys_hTAOi-48" target="ZD2GbBzJbw6rys_hTAOi-3" edge="1">
          <mxGeometry relative="1" as="geometry" />
        </mxCell>
        <mxCell id="ZD2GbBzJbw6rys_hTAOi-48" value="&lt;u&gt;&lt;font style=&quot;font-size: 11px&quot;&gt;Seriale_macchinario&lt;/font&gt;&lt;/u&gt;" style="whiteSpace=wrap;html=1;align=center;" parent="1" vertex="1">
          <mxGeometry x="-60" y="80" width="100" height="40" as="geometry" />
        </mxCell>
        <mxCell id="ZD2GbBzJbw6rys_hTAOi-49" value="&lt;u&gt;#Progressivo&lt;/u&gt;" style="whiteSpace=wrap;html=1;align=center;" parent="1" vertex="1">
          <mxGeometry x="-160" y="80" width="100" height="40" as="geometry" />
        </mxCell>
        <mxCell id="ZD2GbBzJbw6rys_hTAOi-50" value="INTERVENTO" style="text;html=1;strokeColor=none;fillColor=none;align=center;verticalAlign=middle;whiteSpace=wrap;rounded=0;" parent="1" vertex="1">
          <mxGeometry x="-150" y="50" width="80" height="30" as="geometry" />
        </mxCell>
        <mxCell id="ZD2GbBzJbw6rys_hTAOi-51" value="Sostituzione" style="whiteSpace=wrap;html=1;align=center;" parent="1" vertex="1">
          <mxGeometry x="40" y="80" width="100" height="40" as="geometry" />
        </mxCell>
        <mxCell id="ZD2GbBzJbw6rys_hTAOi-52" value="Stato" style="whiteSpace=wrap;html=1;align=center;" parent="1" vertex="1">
          <mxGeometry x="140" y="80" width="100" height="40" as="geometry" />
        </mxCell>
        <mxCell id="ZD2GbBzJbw6rys_hTAOi-53" value="DataArrivo" style="whiteSpace=wrap;html=1;align=center;" parent="1" vertex="1">
          <mxGeometry x="240" y="80" width="100" height="40" as="geometry" />
        </mxCell>
        <mxCell id="ZD2GbBzJbw6rys_hTAOi-54" value="DataFine" style="whiteSpace=wrap;html=1;align=center;" parent="1" vertex="1">
          <mxGeometry x="340" y="80" width="100" height="40" as="geometry" />
        </mxCell>
        <mxCell id="ZD2GbBzJbw6rys_hTAOi-55" value="Tipo" style="whiteSpace=wrap;html=1;align=center;" parent="1" vertex="1">
          <mxGeometry x="-280" y="200" width="100" height="40" as="geometry" />
        </mxCell>
        <mxCell id="ZD2GbBzJbw6rys_hTAOi-56" value="&lt;u&gt;&lt;b&gt;ID&lt;/b&gt;&lt;/u&gt;" style="whiteSpace=wrap;html=1;align=center;" parent="1" vertex="1">
          <mxGeometry x="-380" y="200" width="100" height="40" as="geometry" />
        </mxCell>
        <mxCell id="ZD2GbBzJbw6rys_hTAOi-57" value="PROGETTO" style="text;html=1;strokeColor=none;fillColor=none;align=center;verticalAlign=middle;whiteSpace=wrap;rounded=0;" parent="1" vertex="1">
          <mxGeometry x="-370" y="170" width="80" height="30" as="geometry" />
        </mxCell>
        <mxCell id="ZD2GbBzJbw6rys_hTAOi-59" value="TipoContratto" style="whiteSpace=wrap;html=1;align=center;" parent="1" vertex="1">
          <mxGeometry x="-379.95000000000005" y="520" width="100" height="40" as="geometry" />
        </mxCell>
        <mxCell id="ZD2GbBzJbw6rys_hTAOi-60" value="&lt;u&gt;&lt;b&gt;Matricola&lt;/b&gt;&lt;/u&gt;" style="whiteSpace=wrap;html=1;align=center;" parent="1" vertex="1">
          <mxGeometry x="-479.95000000000005" y="520" width="100" height="40" as="geometry" />
        </mxCell>
        <mxCell id="ZD2GbBzJbw6rys_hTAOi-61" value="DIPENDENTE" style="text;html=1;strokeColor=none;fillColor=none;align=center;verticalAlign=middle;whiteSpace=wrap;rounded=0;" parent="1" vertex="1">
          <mxGeometry x="-469.95000000000005" y="490" width="80" height="30" as="geometry" />
        </mxCell>
        <mxCell id="ZD2GbBzJbw6rys_hTAOi-62" value="&lt;font style=&quot;font-size: 11px&quot;&gt;AlboProfessionale &lt;/font&gt;*" style="whiteSpace=wrap;html=1;align=center;" parent="1" vertex="1">
          <mxGeometry x="-279.95" y="520" width="100" height="40" as="geometry" />
        </mxCell>
        <mxCell id="ZD2GbBzJbw6rys_hTAOi-63" value="&lt;font style=&quot;font-size: 11px&quot;&gt;OreManutenzione &lt;/font&gt;*" style="whiteSpace=wrap;html=1;align=center;" parent="1" vertex="1">
          <mxGeometry x="-179.95" y="520" width="100" height="40" as="geometry" />
        </mxCell>
        <mxCell id="ZD2GbBzJbw6rys_hTAOi-64" value="Disponibilità *" style="whiteSpace=wrap;html=1;align=center;" parent="1" vertex="1">
          <mxGeometry x="-79.95" y="520" width="100" height="40" as="geometry" />
        </mxCell>
        <mxCell id="ZD2GbBzJbw6rys_hTAOi-65" value="&lt;font style=&quot;font-size: 11px&quot;&gt;Specializzazione &lt;/font&gt;*" style="whiteSpace=wrap;html=1;align=center;" parent="1" vertex="1">
          <mxGeometry x="20.049999999999997" y="520" width="100" height="40" as="geometry" />
        </mxCell>
        <mxCell id="ZD2GbBzJbw6rys_hTAOi-66" value="CF" style="whiteSpace=wrap;html=1;align=center;" parent="1" vertex="1">
          <mxGeometry x="-379.95000000000005" y="640" width="100" height="40" as="geometry" />
        </mxCell>
        <mxCell id="ZD2GbBzJbw6rys_hTAOi-77" style="edgeStyle=orthogonalEdgeStyle;rounded=0;orthogonalLoop=1;jettySize=auto;html=1;exitX=0;exitY=0.5;exitDx=0;exitDy=0;entryX=0;entryY=0.75;entryDx=0;entryDy=0;" parent="1" source="ZD2GbBzJbw6rys_hTAOi-67" target="ZD2GbBzJbw6rys_hTAOi-60" edge="1">
          <mxGeometry relative="1" as="geometry" />
        </mxCell>
        <mxCell id="ZD2GbBzJbw6rys_hTAOi-67" value="&lt;u&gt;Matr_dip&lt;/u&gt;" style="whiteSpace=wrap;html=1;align=center;" parent="1" vertex="1">
          <mxGeometry x="-479.95000000000005" y="640" width="100" height="40" as="geometry" />
        </mxCell>
        <mxCell id="ZD2GbBzJbw6rys_hTAOi-68" value="SCHEDA DIPENDENTE" style="text;html=1;strokeColor=none;fillColor=none;align=center;verticalAlign=middle;whiteSpace=wrap;rounded=0;" parent="1" vertex="1">
          <mxGeometry x="-469.95000000000005" y="610" width="140" height="30" as="geometry" />
        </mxCell>
        <mxCell id="ZD2GbBzJbw6rys_hTAOi-69" value="Nome" style="whiteSpace=wrap;html=1;align=center;" parent="1" vertex="1">
          <mxGeometry x="-279.95" y="640" width="100" height="40" as="geometry" />
        </mxCell>
        <mxCell id="ZD2GbBzJbw6rys_hTAOi-70" value="Cognome" style="whiteSpace=wrap;html=1;align=center;" parent="1" vertex="1">
          <mxGeometry x="-179.95" y="640" width="100" height="40" as="geometry" />
        </mxCell>
        <mxCell id="ZD2GbBzJbw6rys_hTAOi-71" value="Email" style="whiteSpace=wrap;html=1;align=center;" parent="1" vertex="1">
          <mxGeometry x="-79.95" y="640" width="100" height="40" as="geometry" />
        </mxCell>
        <mxCell id="ZD2GbBzJbw6rys_hTAOi-72" value="Telefono" style="whiteSpace=wrap;html=1;align=center;" parent="1" vertex="1">
          <mxGeometry x="20.049999999999997" y="640" width="100" height="40" as="geometry" />
        </mxCell>
        <mxCell id="ZD2GbBzJbw6rys_hTAOi-124" style="edgeStyle=orthogonalEdgeStyle;rounded=0;orthogonalLoop=1;jettySize=auto;html=1;exitX=0.25;exitY=0;exitDx=0;exitDy=0;entryX=0.5;entryY=1;entryDx=0;entryDy=0;fontSize=11;" parent="1" source="ZD2GbBzJbw6rys_hTAOi-78" target="ZD2GbBzJbw6rys_hTAOi-23" edge="1">
          <mxGeometry relative="1" as="geometry" />
        </mxCell>
        <mxCell id="ZD2GbBzJbw6rys_hTAOi-78" value="CF_Cliente*" style="whiteSpace=wrap;html=1;align=center;" parent="1" vertex="1">
          <mxGeometry x="780" y="200" width="100" height="40" as="geometry" />
        </mxCell>
        <mxCell id="ZD2GbBzJbw6rys_hTAOi-88" style="edgeStyle=orthogonalEdgeStyle;rounded=0;orthogonalLoop=1;jettySize=auto;html=1;exitX=0.5;exitY=1;exitDx=0;exitDy=0;entryX=0.5;entryY=1;entryDx=0;entryDy=0;" parent="1" source="ZD2GbBzJbw6rys_hTAOi-81" target="ZD2GbBzJbw6rys_hTAOi-15" edge="1">
          <mxGeometry relative="1" as="geometry" />
        </mxCell>
        <mxCell id="ZD2GbBzJbw6rys_hTAOi-81" value="isBase*" style="whiteSpace=wrap;html=1;align=center;" parent="1" vertex="1">
          <mxGeometry x="880" y="200" width="100" height="40" as="geometry" />
        </mxCell>
        <mxCell id="ZD2GbBzJbw6rys_hTAOi-89" style="edgeStyle=orthogonalEdgeStyle;rounded=0;orthogonalLoop=1;jettySize=auto;html=1;exitX=0.5;exitY=1;exitDx=0;exitDy=0;entryX=0;entryY=0.75;entryDx=0;entryDy=0;" parent="1" source="ZD2GbBzJbw6rys_hTAOi-82" target="ZD2GbBzJbw6rys_hTAOi-12" edge="1">
          <mxGeometry relative="1" as="geometry" />
        </mxCell>
        <mxCell id="ZD2GbBzJbw6rys_hTAOi-82" value="isAccessoria*" style="whiteSpace=wrap;html=1;align=center;" parent="1" vertex="1">
          <mxGeometry x="980" y="200" width="100" height="40" as="geometry" />
        </mxCell>
        <mxCell id="ZD2GbBzJbw6rys_hTAOi-125" style="edgeStyle=orthogonalEdgeStyle;rounded=0;orthogonalLoop=1;jettySize=auto;html=1;exitX=0.5;exitY=1;exitDx=0;exitDy=0;entryX=0.5;entryY=1;entryDx=0;entryDy=0;fontSize=11;" parent="1" source="ZD2GbBzJbw6rys_hTAOi-83" target="ZD2GbBzJbw6rys_hTAOi-37" edge="1">
          <mxGeometry relative="1" as="geometry" />
        </mxCell>
        <mxCell id="ZD2GbBzJbw6rys_hTAOi-83" value="CF_corriere*" style="whiteSpace=wrap;html=1;align=center;" parent="1" vertex="1">
          <mxGeometry x="1080" y="200" width="100" height="40" as="geometry" />
        </mxCell>
        <mxCell id="ZD2GbBzJbw6rys_hTAOi-109" style="edgeStyle=orthogonalEdgeStyle;rounded=0;orthogonalLoop=1;jettySize=auto;html=1;exitX=0.5;exitY=1;exitDx=0;exitDy=0;entryX=0.75;entryY=0;entryDx=0;entryDy=0;fontSize=11;" parent="1" source="ZD2GbBzJbw6rys_hTAOi-85" target="ZD2GbBzJbw6rys_hTAOi-15" edge="1">
          <mxGeometry relative="1" as="geometry" />
        </mxCell>
        <mxCell id="ZD2GbBzJbw6rys_hTAOi-85" value="NomeCat_Base" style="whiteSpace=wrap;html=1;align=center;" parent="1" vertex="1">
          <mxGeometry x="570" y="320" width="100" height="40" as="geometry" />
        </mxCell>
        <mxCell id="ZD2GbBzJbw6rys_hTAOi-110" style="edgeStyle=orthogonalEdgeStyle;rounded=0;orthogonalLoop=1;jettySize=auto;html=1;exitX=0.25;exitY=1;exitDx=0;exitDy=0;entryX=0.75;entryY=1;entryDx=0;entryDy=0;fontSize=11;" parent="1" source="ZD2GbBzJbw6rys_hTAOi-86" target="ZD2GbBzJbw6rys_hTAOi-12" edge="1">
          <mxGeometry relative="1" as="geometry" />
        </mxCell>
        <mxCell id="ZD2GbBzJbw6rys_hTAOi-86" value="NomeCat_Acc" style="whiteSpace=wrap;html=1;align=center;" parent="1" vertex="1">
          <mxGeometry x="470" y="320" width="100" height="40" as="geometry" />
        </mxCell>
        <mxCell id="ZD2GbBzJbw6rys_hTAOi-87" value="ASSOCIAZIONE" style="text;html=1;strokeColor=none;fillColor=none;align=center;verticalAlign=middle;whiteSpace=wrap;rounded=0;" parent="1" vertex="1">
          <mxGeometry x="490" y="290" width="60" height="30" as="geometry" />
        </mxCell>
        <mxCell id="ZD2GbBzJbw6rys_hTAOi-92" value="Nome" style="whiteSpace=wrap;html=1;align=center;" parent="1" vertex="1">
          <mxGeometry x="640" y="560" width="100" height="40" as="geometry" />
        </mxCell>
        <mxCell id="ZD2GbBzJbw6rys_hTAOi-93" value="Cognome" style="whiteSpace=wrap;html=1;align=center;" parent="1" vertex="1">
          <mxGeometry x="740" y="560" width="100" height="40" as="geometry" />
        </mxCell>
        <mxCell id="ZD2GbBzJbw6rys_hTAOi-94" value="Email" style="whiteSpace=wrap;html=1;align=center;" parent="1" vertex="1">
          <mxGeometry x="840" y="560" width="100" height="40" as="geometry" />
        </mxCell>
        <mxCell id="ZD2GbBzJbw6rys_hTAOi-95" value="Telefono" style="whiteSpace=wrap;html=1;align=center;" parent="1" vertex="1">
          <mxGeometry x="940" y="560" width="100" height="40" as="geometry" />
        </mxCell>
        <mxCell id="ZD2GbBzJbw6rys_hTAOi-112" style="edgeStyle=orthogonalEdgeStyle;rounded=0;orthogonalLoop=1;jettySize=auto;html=1;exitX=1;exitY=0.75;exitDx=0;exitDy=0;entryX=0;entryY=0.75;entryDx=0;entryDy=0;fontSize=11;" parent="1" source="ZD2GbBzJbw6rys_hTAOi-96" target="ZD2GbBzJbw6rys_hTAOi-3" edge="1">
          <mxGeometry relative="1" as="geometry" />
        </mxCell>
        <mxCell id="ZD2GbBzJbw6rys_hTAOi-96" value="Seriale_macc" style="whiteSpace=wrap;html=1;align=center;" parent="1" vertex="1">
          <mxGeometry x="-180" y="200" width="100" height="40" as="geometry" />
        </mxCell>
        <mxCell id="ZD2GbBzJbw6rys_hTAOi-97" value="&lt;font style=&quot;font-size: 11px&quot;&gt;DataInizio&lt;/font&gt;" style="whiteSpace=wrap;html=1;align=center;" parent="1" vertex="1">
          <mxGeometry x="-500" y="360" width="100" height="40" as="geometry" />
        </mxCell>
        <mxCell id="ZD2GbBzJbw6rys_hTAOi-98" value="Ore" style="whiteSpace=wrap;html=1;align=center;" parent="1" vertex="1">
          <mxGeometry x="-600" y="360" width="100" height="40" as="geometry" />
        </mxCell>
        <mxCell id="ZD2GbBzJbw6rys_hTAOi-99" value="COINVOLGIMENTO" style="text;html=1;strokeColor=none;fillColor=none;align=center;verticalAlign=middle;whiteSpace=wrap;rounded=0;" parent="1" vertex="1">
          <mxGeometry x="-590" y="330" width="80" height="30" as="geometry" />
        </mxCell>
        <mxCell id="ZD2GbBzJbw6rys_hTAOi-100" value="DataFine" style="whiteSpace=wrap;html=1;align=center;" parent="1" vertex="1">
          <mxGeometry x="-400" y="360" width="100" height="40" as="geometry" />
        </mxCell>
        <mxCell id="ZD2GbBzJbw6rys_hTAOi-121" style="edgeStyle=orthogonalEdgeStyle;rounded=0;orthogonalLoop=1;jettySize=auto;html=1;exitX=0.25;exitY=1;exitDx=0;exitDy=0;entryX=0.5;entryY=1;entryDx=0;entryDy=0;fontSize=11;" parent="1" source="ZD2GbBzJbw6rys_hTAOi-101" target="ZD2GbBzJbw6rys_hTAOi-60" edge="1">
          <mxGeometry relative="1" as="geometry">
            <Array as="points">
              <mxPoint x="-275" y="440" />
              <mxPoint x="-510" y="440" />
              <mxPoint x="-510" y="580" />
              <mxPoint x="-430" y="580" />
            </Array>
          </mxGeometry>
        </mxCell>
        <mxCell id="ZD2GbBzJbw6rys_hTAOi-101" value="Matricola_Dip" style="whiteSpace=wrap;html=1;align=center;" parent="1" vertex="1">
          <mxGeometry x="-300" y="360" width="100" height="40" as="geometry" />
        </mxCell>
        <mxCell id="ZD2GbBzJbw6rys_hTAOi-113" style="edgeStyle=orthogonalEdgeStyle;rounded=0;orthogonalLoop=1;jettySize=auto;html=1;exitX=0.25;exitY=0;exitDx=0;exitDy=0;entryX=0;entryY=0.25;entryDx=0;entryDy=0;fontSize=11;" parent="1" source="ZD2GbBzJbw6rys_hTAOi-102" target="ZD2GbBzJbw6rys_hTAOi-49" edge="1">
          <mxGeometry relative="1" as="geometry">
            <Array as="points">
              <mxPoint x="-175" y="300" />
              <mxPoint x="-450" y="300" />
              <mxPoint x="-450" y="90" />
            </Array>
          </mxGeometry>
        </mxCell>
        <mxCell id="ZD2GbBzJbw6rys_hTAOi-102" value="#Intervento" style="whiteSpace=wrap;html=1;align=center;" parent="1" vertex="1">
          <mxGeometry x="-200" y="360" width="100" height="40" as="geometry" />
        </mxCell>
        <mxCell id="ZD2GbBzJbw6rys_hTAOi-114" style="edgeStyle=orthogonalEdgeStyle;rounded=0;orthogonalLoop=1;jettySize=auto;html=1;exitX=0.75;exitY=0;exitDx=0;exitDy=0;entryX=0.5;entryY=1;entryDx=0;entryDy=0;fontSize=11;" parent="1" source="ZD2GbBzJbw6rys_hTAOi-103" target="ZD2GbBzJbw6rys_hTAOi-3" edge="1">
          <mxGeometry relative="1" as="geometry">
            <Array as="points">
              <mxPoint x="-25" y="260" />
              <mxPoint x="130" y="260" />
            </Array>
          </mxGeometry>
        </mxCell>
        <mxCell id="ZD2GbBzJbw6rys_hTAOi-103" value="Seriale_Macc" style="whiteSpace=wrap;html=1;align=center;" parent="1" vertex="1">
          <mxGeometry x="-100" y="360" width="100" height="40" as="geometry" />
        </mxCell>
        <mxCell id="ZD2GbBzJbw6rys_hTAOi-122" style="edgeStyle=orthogonalEdgeStyle;rounded=0;orthogonalLoop=1;jettySize=auto;html=1;exitX=0.5;exitY=1;exitDx=0;exitDy=0;entryX=0;entryY=0.25;entryDx=0;entryDy=0;fontSize=11;" parent="1" source="ZD2GbBzJbw6rys_hTAOi-115" target="ZD2GbBzJbw6rys_hTAOi-60" edge="1">
          <mxGeometry relative="1" as="geometry" />
        </mxCell>
        <mxCell id="ZD2GbBzJbw6rys_hTAOi-115" value="Matricola_Dip" style="whiteSpace=wrap;html=1;align=center;" parent="1" vertex="1">
          <mxGeometry x="-660" y="440" width="100" height="40" as="geometry" />
        </mxCell>
        <mxCell id="ZD2GbBzJbw6rys_hTAOi-123" style="edgeStyle=orthogonalEdgeStyle;rounded=0;orthogonalLoop=1;jettySize=auto;html=1;exitX=0;exitY=0.25;exitDx=0;exitDy=0;entryX=0;entryY=0.5;entryDx=0;entryDy=0;fontSize=11;" parent="1" source="ZD2GbBzJbw6rys_hTAOi-116" target="ZD2GbBzJbw6rys_hTAOi-56" edge="1">
          <mxGeometry relative="1" as="geometry" />
        </mxCell>
        <mxCell id="ZD2GbBzJbw6rys_hTAOi-116" value="ID_Progetto" style="whiteSpace=wrap;html=1;align=center;" parent="1" vertex="1">
          <mxGeometry x="-760" y="440" width="100" height="40" as="geometry" />
        </mxCell>
        <mxCell id="ZD2GbBzJbw6rys_hTAOi-117" value="PARTECIPAZIONE" style="text;html=1;strokeColor=none;fillColor=none;align=center;verticalAlign=middle;whiteSpace=wrap;rounded=0;" parent="1" vertex="1">
          <mxGeometry x="-740" y="410" width="60" height="30" as="geometry" />
        </mxCell>
      </root>
    </mxGraphModel>
  </diagram>
</mxfile>
